<svg id="logo" xmlns="http://www.w3.org/2000/svg" viewBox="0 0 234.8 56.7" style="enable-background:new 0 0 234.8 56.7;" xml:space="preserve">
  <style>
    .st0{fill:#f6921f}
  </style>
  <g id="sign">
    <path class="st0" d="M0 17v22.1c0 3.4 2 6.4 5.1 7.7l23 9.6c2.7 1.1 5.8-.9 5.8-3.8V25.4c0-1.9-1.2-3.5-3-4L4.2 13.8C2.1 13.2 0 14.8 0 17zM57 13.4v20.5c0 2.1-.8 4.2-2.3 5.7L41.1 54c-1.5 1.6-4.3.6-4.3-1.7v-28c0-1.4.7-2.7 1.9-3.5l14.4-9.5c1.7-1.1 3.9.1 3.9 2.1zM29.3.2L49.5 5c2.1.5 2.6 3.3.8 4.5l-12.2 8c-2 1.3-4.5 1.7-6.9 1.1L8.1 12c-2.3-.7-2.5-3.8-.3-4.7L24.2.6c1.6-.6 3.4-.8 5.1-.4z"/>
  </g>
  <g id="word">
    <path class="st0" d="M68.5 30.9c-.9-.5-1.6-1.1-2.1-2s-.8-1.8-.8-2.9.3-2 .8-2.9 1.2-1.5 2.1-2 1.9-.7 3-.7c.9 0 1.7.2 2.4.5s1.4.8 1.9 1.4l-1.3 1.2c-.8-.9-1.8-1.3-2.9-1.3-.7 0-1.4.2-2 .5s-1.1.8-1.4 1.4-.5 1.2-.5 2c0 .7.2 1.4.5 2s.8 1 1.4 1.4 1.3.5 2 .5c1.2 0 2.1-.4 2.9-1.3l1.3 1.2c-.5.6-1.1 1-1.9 1.4-.7.3-1.6.5-2.4.5-1.1-.2-2.1-.4-3-.9zM78.7 31c-.7-.4-1.2-.9-1.6-1.5s-.6-1.4-.6-2.2.2-1.5.6-2.2.9-1.1 1.6-1.5 1.4-.5 2.3-.5 1.6.2 2.3.5c.7.4 1.2.9 1.6 1.5s.6 1.4.6 2.2-.2 1.6-.6 2.2-.9 1.2-1.6 1.5c-.7.4-1.4.5-2.3.5-.8.1-1.6-.1-2.3-.5zm4.1-1.8c.5-.5.7-1.1.7-1.9s-.2-1.4-.7-1.9-1.1-.7-1.8-.7-1.3.2-1.8.7-.7 1.1-.7 1.9.2 1.4.7 1.9 1 .7 1.8.7 1.3-.2 1.8-.7zM94.5 24c.6.6.9 1.5.9 2.7v4.8h-1.9V27c0-.7-.2-1.3-.5-1.6s-.8-.6-1.5-.6-1.3.2-1.7.6-.6 1-.6 1.9v4.2h-1.9v-8.3h1.9v1.1c.3-.4.7-.7 1.2-.9.5-.2 1-.3 1.6-.3 1.1-.1 1.9.3 2.5.9zM106.3 23.1v7c0 2.9-1.5 4.4-4.5 4.4-.8 0-1.6-.1-2.3-.3-.7-.2-1.3-.5-1.8-.9l.9-1.5c.4.3.8.5 1.4.7s1.1.3 1.7.3c.9 0 1.6-.2 2-.6.4-.4.6-1 .6-1.9V30c-.3.4-.7.6-1.2.8-.5.2-1 .3-1.6.3-.8 0-1.5-.2-2.1-.5s-1.1-.8-1.5-1.4-.6-1.3-.6-2.1.2-1.5.6-2.1.9-1.1 1.5-1.4 1.4-.5 2.1-.5c.6 0 1.1.1 1.6.3.5.2.9.5 1.2.9v-1.1l2-.1zm-2.6 5.7c.5-.4.7-1 .7-1.7s-.2-1.3-.7-1.7c-.5-.4-1.1-.7-1.8-.7s-1.4.2-1.8.7c-.5.4-.7 1-.7 1.7s.2 1.3.7 1.7c.5.4 1.1.7 1.8.7.7-.1 1.3-.3 1.8-.7zM113.6 23v1.9h-.5c-.8 0-1.3.2-1.8.7-.4.4-.6 1.1-.6 1.9v4h-1.9v-8.3h1.9v1.2c.5-.9 1.5-1.4 2.9-1.4zM123 27.9h-6.5c.1.6.4 1.1.9 1.5s1.1.5 1.8.5c.9 0 1.7-.3 2.3-.9l1 1.2c-.4.4-.8.8-1.4 1s-1.2.3-1.9.3c-.9 0-1.7-.2-2.4-.5-.7-.4-1.2-.9-1.6-1.5s-.6-1.4-.6-2.2c0-.8.2-1.5.6-2.2.4-.6.9-1.2 1.5-1.5.7-.4 1.4-.5 2.2-.5.8 0 1.5.2 2.2.5.6.4 1.1.9 1.5 1.5s.5 1.4.5 2.2c-.1.2-.1.4-.1.6zm-5.8-2.7c-.4.4-.7.9-.8 1.5h4.7c-.1-.6-.3-1.1-.8-1.5-.4-.4-1-.6-1.6-.6-.5 0-1 .2-1.5.6zM125.5 31.3c-.6-.2-1.2-.4-1.5-.7l.7-1.5c.4.2.8.4 1.3.6s1 .2 1.5.2c1.2 0 1.7-.3 1.7-.9 0-.3-.1-.5-.4-.6-.3-.1-.8-.2-1.4-.3-.7-.1-1.2-.2-1.7-.4-.4-.1-.8-.4-1.1-.7s-.5-.8-.5-1.4c0-.8.3-1.4 1-1.9s1.5-.7 2.7-.7c.6 0 1.1.1 1.7.2.6.1 1 .3 1.4.5l-.7 1.5c-.7-.4-1.5-.6-2.4-.6-.6 0-1 .1-1.3.3s-.4.4-.4.7c0 .3.2.5.5.7.3.1.8.3 1.5.4s1.2.2 1.6.4.8.4 1.1.7.5.8.5 1.4c0 .8-.3 1.4-1 1.9s-1.6.7-2.8.7c-.7-.2-1.4-.3-2-.5zM134.4 31c-.7-.4-1.2-.9-1.6-1.5-.4-.6-.6-1.4-.6-2.2s.2-1.5.6-2.2c.4-.6.9-1.1 1.6-1.5.7-.4 1.4-.5 2.3-.5.8 0 1.6.2 2.3.5.7.4 1.2.9 1.6 1.5.4.6.6 1.4.6 2.2s-.2 1.6-.6 2.2c-.4.6-.9 1.2-1.6 1.5-.7.4-1.4.5-2.3.5-.9.1-1.7-.1-2.3-.5zm4-1.8c.5-.5.7-1.1.7-1.9s-.2-1.4-.7-1.9-1.1-.7-1.8-.7-1.3.2-1.8.7-.7 1.1-.7 1.9.2 1.4.7 1.9 1 .7 1.8.7 1.3-.2 1.8-.7zM156.5 26.8c.4.5.5 1 .5 1.7 0 .9-.4 1.7-1.1 2.2-.7.5-1.8.8-3.2.8h-5.4V20.6h5.1c1.3 0 2.3.3 3 .8s1 1.2 1 2.1c0 .5-.1 1-.4 1.4-.2.4-.6.7-1 1 .7.1 1.2.4 1.5.9zm-7.1-4.7v3h2.9c.7 0 1.2-.1 1.6-.4.4-.3.6-.6.6-1.1s-.2-.9-.6-1.1c-.4-.3-.9-.4-1.6-.4h-2.9zm5.6 6.2c0-1-.8-1.6-2.3-1.6h-3.3v3.1h3.3c1.6.1 2.3-.5 2.3-1.5zM159.1 19.9h1.9v11.5h-1.9V19.9zM165 31c-.7-.4-1.2-.9-1.6-1.5-.4-.6-.6-1.4-.6-2.2s.2-1.5.6-2.2c.4-.6.9-1.1 1.6-1.5.7-.4 1.4-.5 2.3-.5.8 0 1.6.2 2.3.5.7.4 1.2.9 1.6 1.5.4.6.6 1.4.6 2.2s-.2 1.6-.6 2.2c-.4.6-.9 1.2-1.6 1.5-.7.4-1.4.5-2.3.5-.9.1-1.6-.1-2.3-.5zm4.1-1.8c.5-.5.7-1.1.7-1.9s-.2-1.4-.7-1.9-1.1-.7-1.8-.7-1.3.2-1.8.7-.7 1.1-.7 1.9.2 1.4.7 1.9 1 .7 1.8.7 1.3-.2 1.8-.7zM175.1 31c-.7-.4-1.2-.9-1.6-1.5-.4-.6-.6-1.4-.6-2.2s.2-1.5.6-2.2c.4-.6.9-1.1 1.6-1.5.7-.4 1.5-.5 2.3-.5s1.5.2 2.2.5c.6.3 1.1.8 1.4 1.4l-1.5.9c-.2-.4-.5-.7-.9-.9s-.7-.3-1.2-.3c-.7 0-1.3.2-1.8.7s-.7 1.1-.7 1.9.2 1.4.7 1.9 1.1.7 1.8.7c.4 0 .8-.1 1.2-.3.4-.2.7-.5.9-.9l1.5.9c-.3.6-.8 1.1-1.4 1.4-.6.3-1.3.5-2.1.5-1 .1-1.7-.1-2.4-.5zM185.9 27.9l-1.4 1.4v2.2h-1.9V19.9h1.9v7l4-3.7h2.3l-3.5 3.5 3.8 4.8h-2.4l-2.8-3.6zM193.6 31c-.7-.4-1.2-.9-1.6-1.5-.4-.6-.6-1.4-.6-2.2s.2-1.5.6-2.2c.4-.6.9-1.1 1.6-1.5.7-.4 1.5-.5 2.3-.5s1.5.2 2.2.5c.6.3 1.1.8 1.4 1.4l-1.5.9c-.2-.4-.5-.7-.9-.9s-.7-.3-1.2-.3c-.7 0-1.3.2-1.8.7s-.7 1.1-.7 1.9.2 1.4.7 1.9 1.1.7 1.8.7c.4 0 .8-.1 1.2-.3.4-.2.7-.5.9-.9l1.5.9c-.3.6-.8 1.1-1.4 1.4-.6.3-1.3.5-2.1.5-1 .1-1.7-.1-2.4-.5zM208.3 24c.6.6.9 1.5.9 2.7v4.8h-1.9V27c0-.7-.2-1.3-.5-1.6-.3-.4-.8-.6-1.5-.6s-1.3.2-1.7.6-.6 1-.6 1.9v4.2h-2V19.9h1.9v4.2c.3-.3.7-.6 1.2-.8.5-.2 1-.3 1.6-.3 1.1 0 1.9.4 2.6 1zM217.7 23.9c.6.6 1 1.5 1 2.7v4.9h-1.8v-1c-.2.4-.6.6-1 .8s-1 .3-1.6.3-1.2-.1-1.6-.3c-.5-.2-.8-.5-1.1-.9s-.4-.8-.4-1.3c0-.7.3-1.3.8-1.8s1.4-.7 2.6-.7h2.1v-.1c0-.6-.2-1-.5-1.3s-.9-.5-1.5-.5c-.5 0-.9.1-1.4.2s-.8.3-1.1.6l-.8-1.4c.4-.3 1-.6 1.6-.8.6-.2 1.3-.3 1.9-.3 1.2 0 2.1.3 2.8.9zm-1.8 5.9c.4-.2.6-.5.8-1v-1h-2c-1.1 0-1.7.4-1.7 1.1 0 .4.1.6.4.8.3.2.7.3 1.2.3.5.1.9 0 1.3-.2zM221.2 21.4c-.2-.2-.4-.5-.4-.8s.1-.6.4-.8c.2-.2.5-.3.9-.3s.6.1.9.3.4.5.4.8-.1.6-.3.9-.5.4-.9.4c-.4-.1-.7-.2-1-.5zm-.1 1.7h1.9v8.3h-1.9v-8.3zM232.9 24c.6.6.9 1.5.9 2.7v4.8h-1.9V27c0-.7-.2-1.3-.5-1.6-.3-.4-.8-.6-1.5-.6s-1.3.2-1.7.6-.6 1-.6 1.9v4.2h-1.9v-8.3h1.9v1.1c.3-.4.7-.7 1.2-.9.5-.2 1-.3 1.6-.3 1-.1 1.8.3 2.5.9z"/>
  </g>
</svg>
