<svg xmlns="http://www.w3.org/2000/svg" viewBox="0 0 611 663.3" width="494px" height="536px">
  <defs>
    <clipPath id="clipping">
       <path d="M0 154.4V437c0 18.1 10.1 34.7 26.3 43l309 180.5c16.3 8.4 35.7-3.4 35.7-21.8V252.4c0-17.2-12-32.2-28.8-35.9L35.7 125.8c-18.3-4-35.7 9.9-35.7 28.6zM417.6 205.7L592.2 73.4c7.7-5.9 18.8-.4 18.8 9.2v247.6c0 11.6-3.3 22.9-9.5 32.6l-186 266.5c-6.3 9.8-21.5 5.4-21.5-6.3V253.6c0-18.7 8.7-36.4 23.6-47.9zM66.3 93.2l186-88.7C266.3.2 281-1 295.5 1L559 49c10.3 1.4 13.6 14.6 5.3 20.7L401.9 187.8c-12 8.9-27.3 12.2-41.9 9.1L67.1 111.8c-9.7-2.1-10.3-15.6-.8-18.6z"/>
    </clipPath>
  </defs>
</svg>