<svg id="Layer_1" xmlns="http://www.w3.org/2000/svg" viewBox="0 0 57 56.7">
  <style>
    .st0{fill:#f6921f}
  </style>
  <path class="st0" d="M0 17v22.1c0 3.4 2 6.4 5.1 7.7l23 9.6c2.7 1.1 5.8-.9 5.8-3.8V25.4c0-1.9-1.2-3.5-3-4L4.2 13.8C2.1 13.2 0 14.8 0 17zM57 13.4v20.5c0 2.1-.8 4.2-2.3 5.7L41.1 54c-1.5 1.6-4.3.6-4.3-1.7v-28c0-1.4.7-2.7 1.9-3.5l14.4-9.5c1.7-1.1 3.9.1 3.9 2.1zM29.3.2L49.5 5c2.1.5 2.6 3.3.8 4.5l-12.2 8c-2 1.3-4.5 1.7-6.9 1.1L8.1 12c-2.3-.7-2.5-3.8-.3-4.7L24.2.6c1.6-.6 3.4-.8 5.1-.4z"/>
</svg>
